<?xml version="1.0" encoding="UTF-8" standalone="no"?>
<svg width="29px" height="27px" viewBox="0 0 29 27" version="1.1" xmlns="http://www.w3.org/2000/svg" xmlns:xlink="http://www.w3.org/1999/xlink" xmlns:sketch="http://www.bohemiancoding.com/sketch/ns">
    <!-- Generator: Sketch 3.0.3 (7892) - http://www.bohemiancoding.com/sketch -->
    <title>app</title>
    <desc>Created with Sketch.</desc>
    <defs></defs>
    <g id="Page-1" stroke="none" stroke-width="1" fill="none" fill-rule="evenodd" sketch:type="MSPage">
        <g id="Group" sketch:type="MSLayerGroup" transform="translate(1.140000, 0.300000)">
            <path d="M0.78,-0.3 C0.27885,-0.3 -0.14082,0.11966 -0.14082,0.62081 L-0.14082,24.77881 C-0.14082,25.2962 0.26242,25.69954 0.78,25.69954 L26.938,25.69954 C27.45556,25.69954 27.85881,25.29638 27.85881,24.77881 L27.8595,10.62481 C27.8595,10.12371 27.43984,9.69957 26.93869,9.69957 L5.85969,9.69957 L5.85899,20.70457 C5.85899,21.18469 5.3349,21.68163 4.85479,21.68163 C4.37467,21.68163 3.85906,21.18469 3.85906,20.70457 L3.85976,8.56157 C3.85976,8.08145 4.2646,7.69942 4.74473,7.69942 L9.33913,7.69942 L23.86013,7.69994 L23.85943,4.74834 C23.85943,4.18121 23.43392,3.70024 22.86698,3.70024 L9.85998,3.70024 L9.85998,0.62114 C9.85998,0.11996 9.45412,-0.29967 8.95297,-0.29967 L0.78,-0.3 Z" id="Shape" fill="#000000" sketch:type="MSShapeGroup"></path>
            <path d="M0.78,0.7 C0.27885,0.7 -0.14082,1.11966 -0.14082,1.62081 L-0.14082,25.77881 C-0.14082,26.2962 0.26242,26.69954 0.78,26.69954 L26.938,26.69954 C27.45556,26.69954 27.85881,26.29638 27.85881,25.77881 L27.8595,11.62481 C27.8595,11.12371 27.43984,10.69957 26.93869,10.69957 L5.85969,10.69957 L5.85899,21.70457 C5.85899,22.18469 5.3349,22.68163 4.85479,22.68163 C4.37467,22.68163 3.85906,22.18469 3.85906,21.70457 L3.85976,9.56157 C3.85976,9.08145 4.2646,8.69943 4.74473,8.69943 L9.33913,8.69943 L23.86013,8.69995 L23.85943,5.74835 C23.85943,5.18122 23.43392,4.70025 22.86698,4.70025 L9.85998,4.70025 L9.85998,1.62115 C9.85998,1.11997 9.45412,0.70034 8.95297,0.70034 L0.78,0.7 Z" id="Shape" fill="#FFFFFF" sketch:type="MSShapeGroup"></path>
        </g>
        <path d="M9.5,14.5 L26.5,14.5" id="Line" stroke="#000000" stroke-linecap="square" sketch:type="MSShapeGroup"></path>
        <path d="M9.5,17.5 L26.5,17.5" id="Line-2" stroke="#000000" stroke-linecap="square" sketch:type="MSShapeGroup"></path>
        <path d="M9.5,20.5 L26.5,20.5" id="Line-3" stroke="#000000" stroke-linecap="square" sketch:type="MSShapeGroup"></path>
    </g>
</svg>